<svg width="230" height="38" viewBox="0 0 115 19" fill="none" xmlns="http://www.w3.org/2000/svg">
<g clip-path="url(#clip0_1350_6936)">
<path d="M20.4543 8.03888C20.4729 9.71764 20.1215 11.3218 19.4311 12.8544C18.4453 15.0368 16.0819 16.8213 13.9237 14.9218C12.1636 13.3736 11.837 10.2306 9.19993 9.77049C5.71075 9.34769 5.62679 13.3923 3.34731 13.8492C0.806615 14.3653 -0.0361384 10.0938 0.00117909 8.15391C0.0384966 6.21401 0.554722 3.48759 2.76267 3.48759C5.30337 3.48759 5.47441 7.33318 8.69926 7.12489C11.893 6.90728 11.949 2.90624 14.0357 1.19329C15.8362 -0.286505 17.954 0.798469 19.0144 2.57982C19.9971 4.22749 20.4294 6.16116 20.4512 8.03888H20.4543Z" fill="#F6FEFD"/>
<path d="M30.0352 14.5644V1.58203H31.2666V7.19654H38.8607V1.58203H40.0736V14.5644H38.8607V8.2411H31.2666V14.5644H30.0352Z" fill="#F6FEFD"/>
<path d="M43.2873 18.5005L44.9666 14.3223L41.3281 5.59277H42.5969L44.9852 11.5057C45.1221 11.8663 45.3149 12.3451 45.5637 12.942C45.601 12.8549 45.6383 12.7586 45.6756 12.6529C45.7129 12.5472 45.7502 12.4508 45.7876 12.3638C45.8622 12.2021 45.9275 12.0498 45.9835 11.9068C46.0395 11.7638 46.0923 11.6239 46.1421 11.4871L48.3811 5.59277H49.5939L44.5001 18.5005H43.2873Z" fill="#F6FEFD"/>
<path d="M50.8281 18.5V5.59219H51.985V7.23365C52.2835 6.67406 52.7158 6.21707 53.2817 5.86266C53.8477 5.50826 54.479 5.33105 55.1756 5.33105C56.009 5.33105 56.7336 5.53313 57.3494 5.93727C57.9651 6.34142 58.4378 6.901 58.7674 7.61603C59.0971 8.33105 59.2619 9.14245 59.2619 10.0502C59.2619 10.958 59.0908 11.7912 58.7488 12.5124C58.4067 13.2336 57.9247 13.7994 57.3027 14.2098C56.6807 14.6202 55.9717 14.8254 55.1756 14.8254C54.5039 14.8254 53.885 14.6637 53.3191 14.3404C52.7531 14.0171 52.3084 13.5445 51.985 12.9228V18.5H50.8281ZM55.0077 13.8927C55.6172 13.8927 56.1552 13.7311 56.6217 13.4077C57.0881 13.0844 57.4458 12.6336 57.6945 12.0554C57.9433 11.4772 58.0677 10.8088 58.0677 10.0502C58.0677 9.29168 57.9402 8.6637 57.6852 8.09168C57.4302 7.51966 57.0726 7.0751 56.6123 6.758C56.1521 6.4409 55.6172 6.28235 55.0077 6.28235C54.3982 6.28235 53.8788 6.43779 53.4124 6.74867C52.9459 7.05955 52.582 7.501 52.3208 8.07302C52.0596 8.64504 51.929 9.30411 51.929 10.0502C51.929 10.7963 52.0596 11.4772 52.3208 12.0554C52.582 12.6336 52.9428 13.0844 53.403 13.4077C53.8633 13.7311 54.3982 13.8927 55.0077 13.8927Z" fill="#F6FEFD"/>
<path d="M64.7854 14.8254C63.9396 14.8254 63.1963 14.6388 62.5557 14.2658C61.9151 13.8927 61.4175 13.3456 61.063 12.6243C60.7085 11.9031 60.5312 11.0388 60.5312 10.0316C60.5312 9.13624 60.7147 8.33105 61.0817 7.61603C61.4486 6.901 61.9493 6.34142 62.5837 5.93727C63.2181 5.53313 63.9271 5.33105 64.7108 5.33105C65.5567 5.33105 66.2781 5.5238 66.8752 5.90929C67.4723 6.29479 67.9263 6.83883 68.2373 7.54142C68.5483 8.24401 68.7038 9.06163 68.7038 9.99427V10.2368H61.6881C61.6881 11.0077 61.8187 11.6668 62.0799 12.214C62.3411 12.7611 62.7081 13.1777 63.1808 13.4637C63.6535 13.7497 64.1946 13.8927 64.8041 13.8927C65.5256 13.8927 66.1258 13.7217 66.6047 13.3798C67.0836 13.0378 67.379 12.5248 67.491 11.8409H68.6478C68.5607 12.4129 68.3586 12.9228 68.0414 13.3704C67.7242 13.8181 67.2888 14.1725 66.7353 14.4336C66.1817 14.6948 65.5318 14.8254 64.7854 14.8254ZM67.4723 9.36007C67.4599 8.42743 67.2111 7.68131 66.7259 7.12173C66.2408 6.56214 65.5691 6.28235 64.7108 6.28235C63.8525 6.28235 63.1901 6.57147 62.649 7.14971C62.1079 7.72795 61.8 8.46473 61.7254 9.36007H67.4723Z" fill="#F6FEFD"/>
<path d="M70.4922 14.5645V5.59244H71.649V7.38311C71.8978 6.78622 72.2865 6.29503 72.8152 5.90954C73.3439 5.52404 73.9627 5.3313 74.6717 5.3313C74.8459 5.3313 75.0138 5.34373 75.1755 5.3686V6.48778C74.9641 6.46291 74.7775 6.45047 74.6158 6.45047C74.0187 6.45047 73.4962 6.58415 73.0484 6.85151C72.6006 7.11886 72.2554 7.50125 72.0129 7.99866C71.7703 8.49607 71.649 9.0743 71.649 9.73337V14.5645H70.4922Z" fill="#F6FEFD"/>
<path d="M78.049 14.3158L77.9962 14.5676H74.3359L74.3888 14.3158C75.3995 14.207 75.8131 13.9179 75.9748 13.1625L78.0304 3.47852C78.2481 2.48681 77.9402 2.32515 76.8953 2.53966L76.9482 2.28785L79.1841 1.5293H79.436L76.9637 13.1593C76.802 13.9179 77.0726 14.2039 78.0459 14.3127L78.049 14.3158Z" fill="#F6FEFD"/>
<path d="M82.1701 14.3158L82.1173 14.5676H78.457L78.5099 14.3158C79.5206 14.207 79.9342 13.9179 80.0959 13.1625L81.3398 7.26505C81.5575 6.25469 81.2683 6.11168 80.2047 6.32619L80.2576 6.07438L82.4935 5.31583H82.7454L81.0848 13.1594C80.9231 13.9179 81.1936 14.2039 82.167 14.3127L82.1701 14.3158ZM82.7828 2.05469C83.271 2.05469 83.5944 2.43396 83.5415 2.91894C83.47 3.40702 83.0378 3.76764 82.5682 3.76764C82.0644 3.76764 81.7192 3.40702 81.7938 2.91894C81.8467 2.43085 82.2821 2.05469 82.7859 2.05469H82.7828Z" fill="#F6FEFD"/>
<path d="M88.4752 17.1664L89.4797 12.528C88.8484 13.899 87.5329 14.8348 86.1429 14.8348C83.9069 14.8348 82.8589 12.7239 83.5275 9.56846C83.9971 7.27727 86.0527 5.3125 88.4876 5.3125C89.6072 5.3125 90.5246 5.81613 90.904 6.55602L91.7529 5.3125H92.0048L89.4672 17.1602C89.2869 17.9716 89.9368 18.1332 90.5868 18.242L90.5339 18.4938H86.3326L86.3854 18.242C87.5951 18.1332 88.298 17.9716 88.4783 17.1602L88.4752 17.1664ZM86.7399 14.1695C87.8937 14.1695 89.0474 13.1778 89.5885 11.9871L90.3473 8.43374C90.5463 7.15291 89.9337 5.81924 88.1829 5.81924C86.4321 5.81924 85.0638 7.33323 84.6128 9.54981C84.0344 12.2731 84.8461 14.1664 86.7399 14.1664V14.1695Z" fill="#F6FEFD"/>
<path d="M104.518 14.3158L104.465 14.5676H100.805L100.858 14.3158C101.868 14.207 102.282 13.9179 102.444 13.1625L103.687 7.26505C103.905 6.25469 103.616 6.11168 102.552 6.32619L102.605 6.07438L104.841 5.31583H105.093L103.432 13.1594C103.271 13.9179 103.541 14.2039 104.515 14.3127L104.518 14.3158ZM105.13 2.05469C105.619 2.05469 105.942 2.43396 105.889 2.91894C105.818 3.40702 105.385 3.76764 104.916 3.76764C104.412 3.76764 104.067 3.40702 104.141 2.91894C104.194 2.43085 104.63 2.05469 105.134 2.05469H105.13Z" fill="#F6FEFD"/>
<path d="M99.3192 13.1401L100.15 9.1795L100.967 5.31836H100.716L98.4796 6.07691L98.4267 6.32872C99.4716 6.11111 99.7795 6.25722 99.5618 7.26758L98.4983 12.2976C97.3259 13.3982 96.4955 14.0479 95.4849 14.0479C94.2409 14.0479 93.591 13.1992 93.8989 11.7412L95.2703 5.32147H95.0184L92.7638 6.08002L92.7109 6.33183C93.7745 6.11421 94.0637 6.26033 93.8647 7.27069L92.8913 11.8873C92.5119 13.6002 93.3795 14.8437 94.9842 14.8437C96.0477 14.8437 96.9838 14.25 98.4236 12.7049L98.3552 13.0313V13.0469H98.3521L98.0287 14.5764H100.352L100.405 14.3028C99.4312 14.194 99.1606 13.9049 99.3224 13.1494L99.3192 13.1401Z" fill="#F6FEFD"/>
<path d="M114.271 4.98007L114.998 1.5293H114.747L112.511 2.28785L112.458 2.53966C113.503 2.32204 113.81 2.48681 113.593 3.47852L112.962 6.41634C112.563 5.74795 111.699 5.31583 110.688 5.31583C108.235 5.31583 106.198 7.26194 105.675 9.73344C105.044 12.7272 106.073 14.835 108.328 14.835C109.734 14.835 111.071 13.8806 111.683 12.5096L111.522 13.2961L111.251 14.5645L113.574 14.5459L113.627 14.2941C112.654 14.1853 112.383 13.8961 112.545 13.1407L114.268 4.98007H114.271ZM111.789 11.9687C111.248 13.178 110.094 14.1697 108.922 14.1697C107.028 14.1697 106.216 12.2764 106.757 9.71479C107.261 7.33344 108.704 5.81945 110.384 5.81945C112.175 5.81945 112.772 7.24018 112.535 8.53344L112.452 8.92515L111.792 11.9687H111.789Z" fill="#F6FEFD"/>
</g>
<defs>
<clipPath id="clip0_1350_6936">
<rect width="115" height="18" fill="white" transform="translate(0 0.5)"/>
</clipPath>
</defs>
</svg>
